<svg xmlns="http://www.w3.org/2000/svg" viewBox="0 0 1200 630">
  <defs>
    <linearGradient id="mainBg" x1="0%" y1="0%" x2="100%" y2="100%">
      <stop offset="0%" style="stop-color:#0f172a;stop-opacity:1" />
      <stop offset="100%" style="stop-color:#1e40af;stop-opacity:1" />
    </linearGradient>
    <linearGradient id="deviceGrad" x1="0%" y1="0%" x2="0%" y2="100%">
      <stop offset="0%" style="stop-color:#ffffff;stop-opacity:1" />
      <stop offset="100%" style="stop-color:#e5e7eb;stop-opacity:1" />
    </linearGradient>
    <radialGradient id="glow">
      <stop offset="0%" style="stop-color:#60a5fa;stop-opacity:0.4" />
      <stop offset="100%" style="stop-color:#60a5fa;stop-opacity:0" />
    </radialGradient>
  </defs>

  <!-- Background -->
  <rect width="1200" height="630" fill="url(#mainBg)"/>

  <!-- Decorative grid pattern (subtle) -->
  <g opacity="0.1">
    <line x1="0" y1="157.5" x2="1200" y2="157.5" stroke="#60a5fa" stroke-width="1"/>
    <line x1="0" y1="315" x2="1200" y2="315" stroke="#60a5fa" stroke-width="1"/>
    <line x1="0" y1="472.5" x2="1200" y2="472.5" stroke="#60a5fa" stroke-width="1"/>
    <line x1="300" y1="0" x2="300" y2="630" stroke="#60a5fa" stroke-width="1"/>
    <line x1="600" y1="0" x2="600" y2="630" stroke="#60a5fa" stroke-width="1"/>
    <line x1="900" y1="0" x2="900" y2="630" stroke="#60a5fa" stroke-width="1"/>
  </g>

  <!-- Left side: Icon and branding -->
  <g transform="translate(100, 165)">
    <!-- Large icon background glow -->
    <ellipse cx="150" cy="150" rx="200" ry="200" fill="url(#glow)"/>

    <!-- Icon background -->
    <rect width="300" height="300" rx="60" fill="url(#mainBg)" opacity="0.3"/>
    <rect width="300" height="300" rx="60" fill="none" stroke="#3b82f6" stroke-width="3"/>

    <!-- Device -->
    <rect x="90" y="60" width="120" height="200" rx="10" fill="url(#deviceGrad)" stroke="#1e40af" stroke-width="4"/>

    <!-- Device screen -->
    <rect x="98" y="75" width="104" height="165" rx="5" fill="#1e3a8a"/>

    <!-- Grid overlay -->
    <g opacity="0.7">
      <line x1="130" y1="75" x2="130" y2="240" stroke="#60a5fa" stroke-width="2"/>
      <line x1="160" y1="75" x2="160" y2="240" stroke="#60a5fa" stroke-width="2"/>
      <line x1="98" y1="120" x2="202" y2="120" stroke="#60a5fa" stroke-width="2"/>
      <line x1="98" y1="165" x2="202" y2="165" stroke="#60a5fa" stroke-width="2"/>
      <line x1="98" y1="210" x2="202" y2="210" stroke="#60a5fa" stroke-width="2"/>
    </g>

    <!-- Highlighted element -->
    <rect x="130" y="120" width="40" height="40" rx="5" fill="#ec4899" opacity="0.85"/>

    <!-- Crosshair -->
    <circle cx="150" cy="140" r="15" fill="none" stroke="#fff" stroke-width="3"/>
    <line x1="150" y1="125" x2="150" y2="133" stroke="#fff" stroke-width="3"/>
    <line x1="150" y1="147" x2="150" y2="155" stroke="#fff" stroke-width="3"/>
    <line x1="135" y1="140" x2="143" y2="140" stroke="#fff" stroke-width="3"/>
    <line x1="157" y1="140" x2="165" y2="140" stroke="#fff" stroke-width="3"/>
  </g>

  <!-- Right side: Text content -->
  <g transform="translate(550, 180)">
    <!-- Main title -->
    <text x="0" y="0" font-family="Arial, sans-serif" font-size="72" font-weight="700" fill="#ffffff">
      Visual Mapper
    </text>

    <!-- Subtitle -->
    <text x="0" y="60" font-family="Arial, sans-serif" font-size="32" font-weight="400" fill="#93c5fd">
      Android Device Monitor
    </text>

    <!-- Feature list -->
    <g transform="translate(0, 120)">
      <!-- Feature 1 -->
      <circle cx="0" cy="0" r="8" fill="#ec4899"/>
      <text x="25" y="8" font-family="Arial, sans-serif" font-size="24" font-weight="400" fill="#e5e7eb">
        Visual Element Detection
      </text>

      <!-- Feature 2 -->
      <circle cx="0" cy="50" r="8" fill="#3b82f6"/>
      <text x="25" y="58" font-family="Arial, sans-serif" font-size="24" font-weight="400" fill="#e5e7eb">
        Screenshot Stitching
      </text>

      <!-- Feature 3 -->
      <circle cx="0" cy="100" r="8" fill="#10b981"/>
      <text x="25" y="108" font-family="Arial, sans-serif" font-size="24" font-weight="400" fill="#e5e7eb">
        Home Assistant Integration
      </text>
    </g>

    <!-- Version badge -->
    <rect x="0" y="260" width="120" height="40" rx="20" fill="#1e40af"/>
    <text x="60" y="288" font-family="Arial, sans-serif" font-size="20" font-weight="600" fill="#ffffff" text-anchor="middle">
      v0.0.5
    </text>
  </g>
</svg>
